<?xml version="1.0" standalone="no"?><!DOCTYPE svg PUBLIC "-//W3C//DTD SVG 1.1//EN" "http://www.w3.org/Graphics/SVG/1.1/DTD/svg11.dtd"><svg width="200" height="200" viewBox="0 0 200 200" version="1.1" xmlns="http://www.w3.org/2000/svg" xmlns:xlink="http://www.w3.org/1999/xlink"><g class="transform-group"><g transform="scale(0.1953125, 0.1953125)"><path d="M844.437198 712.851471c-53.98673-23.991414-134.101585-85.808318-252.719913-107.048061 30.334085-32.466436 53.29597-83.238796 76.912799-143.393851 13.688305-34.853809 11.336651-64.567551 11.336651-106.878193 0-31.253818 5.891415-81.408101-1.86761-108.97597-26.162918-93.155656-92.274277-118.857015-169.73252-118.857015-77.518621 0-143.702637 25.823132-169.817458 119.135354-7.698648 27.482935-1.793929 77.527724-1.793929 108.696608 0 42.406832-2.303557 72.217788 11.420565 107.132996 23.798984 60.458977 46.422141 111.158682 76.646728 143.492088-117.672754 21.627577-197.180764 82.983993-250.827743 106.902752C62.988101 762.557546 62.443679 816.748772 62.443679 816.748772l0 92.051509 893.944733-0.10847 0-91.943039C956.388413 816.748772 955.866505 762.375397 844.437198 712.851471z" fill="#a9b7b7"></path></g></g></svg>