<?xml version="1.0" standalone="no"?><!DOCTYPE svg PUBLIC "-//W3C//DTD SVG 1.1//EN" "http://www.w3.org/Graphics/SVG/1.1/DTD/svg11.dtd"><svg width="200" height="200" viewBox="0 0 200 200" version="1.1" xmlns="http://www.w3.org/2000/svg" xmlns:xlink="http://www.w3.org/1999/xlink"><defs><style type="text/css"><![CDATA[
@font-face { font-family: ifont; src: url("//at.alicdn.com/t/font_1442373896_4754455.eot?#iefix") format("embedded-opentype"), url("//at.alicdn.com/t/font_1442373896_4754455.woff") format("woff"), url("//at.alicdn.com/t/font_1442373896_4754455.ttf") format("truetype"), url("//at.alicdn.com/t/font_1442373896_4754455.svg#ifont") format("svg"); }

]]></style></defs><g class="transform-group"><g transform="scale(0.1953125, 0.1953125)"><path d="M959.872 128c0.032 0.032 0.096 0.064 0.128 0.128l0 767.776c-0.032 0.032-0.064 0.096-0.128 0.128l-895.776 0c-0.032-0.032-0.096-0.064-0.128-0.128l0-767.776c0.032-0.032 0.064-0.096 0.128-0.128l895.776 0zM960 64l-896 0c-35.2 0-64 28.8-64 64l0 768c0 35.2 28.8 64 64 64l896 0c35.2 0 64-28.8 64-64l0-768c0-35.2-28.8-64-64-64l0 0zM832 288c0 53.024-42.976 96-96 96s-96-42.976-96-96 42.976-96 96-96 96 42.976 96 96zM896 832l-768 0 0-128 224-384 256 320 64 0 224-192z" fill="#a9b7b7"></path></g></g></svg>